<?xml version="1.0" standalone="no"?>
<!DOCTYPE svg PUBLIC "-//W3C//DTD SVG 20010904//EN"
 "http://www.w3.org/TR/2001/REC-SVG-20010904/DTD/svg10.dtd">
<svg version="1.0" xmlns="http://www.w3.org/2000/svg"
 width="700.000000pt" height="550.000000pt" viewBox="0 0 700.000000 550.000000"
 preserveAspectRatio="xMidYMid meet">

<g transform="translate(0.000000,550.000000) scale(0.100000,-0.100000)"
fill="#000000" stroke="none">
<path d="M1120 5130 l0 -370 210 0 210 0 0 120 0 119 -122 3 -123 3 -3 123 -3
122 126 0 125 0 0 125 0 125 -210 0 -210 0 0 -370z"/>
<path d="M1620 5260 l0 -240 125 0 125 0 0 -25 0 -25 -125 0 -125 0 0 -110 0
-110 215 0 215 0 0 245 0 244 -122 3 c-106 3 -121 5 -124 21 -2 15 9 17 122
17 l124 0 0 110 0 110 -215 0 -215 0 0 -240z"/>
<path d="M2138 5260 l-3 -240 123 0 122 0 0 -25 0 -25 -122 0 -123 0 0 -110 0
-110 213 0 212 0 -2 246 -3 246 -122 -1 c-118 -2 -123 -1 -123 18 0 20 6 21
125 21 l125 0 0 110 0 110 -210 0 -209 0 -3 -240z"/>
<path d="M4020 5130 l0 -370 90 0 90 0 0 125 0 125 80 0 80 0 0 -125 0 -125
90 0 90 0 0 370 0 370 -90 0 -90 0 0 -122 0 -123 -80 0 -80 0 0 123 0 122 -90
0 -90 0 0 -370z"/>
<path d="M4620 5374 l0 -126 75 4 75 3 0 -247 0 -248 90 0 90 0 2 247 3 246
78 -2 77 -2 0 125 0 126 -245 0 -245 0 0 -126z"/>
<path d="M5190 5130 l0 -370 85 0 86 0 -3 175 c-3 167 2 202 21 153 5 -13 27
-62 50 -109 22 -48 41 -92 41 -98 0 -29 22 -4 51 57 17 37 44 94 60 126 l29
59 0 -181 0 -182 90 0 90 0 0 370 0 370 -95 0 c-95 0 -96 0 -106 -27 -6 -16
-19 -46 -29 -68 -40 -84 -63 -140 -62 -147 1 -5 -3 -8 -9 -8 -5 0 -17 17 -25
38 -8 20 -19 48 -25 62 -6 14 -10 27 -9 29 1 2 -2 7 -7 10 -5 3 -18 29 -29 56
l-20 50 -92 3 -92 3 0 -371z"/>
<path d="M5880 5498 c0 -2 -1 -168 -3 -371 l-2 -367 213 0 212 0 0 120 0 119
-122 3 -123 3 -3 248 -2 247 -85 0 c-47 0 -85 -1 -85 -2z"/>
<path d="M466 4410 c-3 -5 16 -336 39 -685 8 -121 30 -474 49 -785 20 -311 38
-581 41 -600 3 -19 16 -240 30 -490 14 -250 29 -500 35 -555 9 -89 26 -369 46
-737 l7 -127 36 -12 c20 -7 59 -22 86 -34 28 -13 102 -42 165 -65 63 -23 120
-45 125 -49 6 -4 64 -27 130 -50 66 -24 138 -51 160 -61 22 -10 85 -34 140
-54 55 -20 114 -43 130 -51 48 -23 146 -55 172 -55 23 0 140 37 158 50 6 4 69
29 140 55 72 26 135 51 140 55 6 4 64 26 130 50 66 23 138 51 160 61 22 10 85
35 140 55 55 20 123 46 150 59 28 12 67 28 88 34 20 7 37 16 37 20 0 46 42
721 50 796 5 55 19 269 31 475 11 206 24 427 29 490 5 63 23 340 39 615 17
275 35 552 41 615 6 63 22 304 35 535 13 231 25 426 27 433 2 9 -304 12 -1390
14 -767 2 -1395 1 -1396 -2z m2264 -856 c-1 -33 -10 -192 -20 -354 -11 -162
-36 -542 -55 -845 -19 -302 -44 -683 -55 -845 -10 -162 -19 -318 -20 -346 l0
-51 -82 -32 c-46 -18 -146 -57 -223 -88 -77 -30 -193 -74 -259 -99 -65 -24
-126 -48 -134 -53 -15 -9 -205 53 -308 99 -24 12 -95 39 -157 62 -62 22 -116
44 -122 48 -5 4 -41 18 -78 30 -37 13 -71 29 -76 35 -4 5 -15 156 -25 335 -9
179 -20 349 -23 378 l-6 52 179 -2 179 -3 11 -189 c9 -157 13 -191 27 -201 10
-7 72 -32 140 -55 67 -24 145 -53 174 -66 44 -20 57 -22 85 -12 18 6 38 14 43
18 6 4 71 29 145 55 182 65 180 63 180 139 0 84 28 500 36 531 l6 25 -611 0
-611 0 0 23 c-1 12 -7 121 -14 242 -8 121 -13 221 -12 221 0 1 287 5 636 8
l635 5 12 188 c6 104 12 214 12 246 l1 57 -664 0 -665 0 -5 53 c-6 55 -26 379
-26 419 l0 23 875 4 875 3 0 -58z"/>
<path d="M3770 4363 c1 -53 24 -420 39 -613 6 -69 19 -291 30 -495 11 -203 25
-417 31 -475 6 -58 24 -330 41 -605 16 -275 36 -597 44 -715 8 -118 24 -370
36 -560 12 -190 24 -372 26 -406 l5 -60 106 -43 c59 -24 163 -65 232 -91 69
-26 190 -73 270 -104 80 -32 181 -71 225 -87 44 -16 126 -48 182 -71 119 -49
128 -48 288 16 50 20 155 62 235 93 142 55 253 98 575 223 88 34 161 63 162
64 2 1 12 160 23 352 11 192 24 392 30 444 5 52 19 266 31 475 11 209 24 427
29 485 5 58 20 301 35 540 14 239 30 489 35 555 5 66 20 311 34 545 14 234 29
460 34 503 l8 77 -1393 0 -1393 0 0 -47z m2527 -305 c-3 -7 -5 -2 -5 12 0 14
2 19 5 13 2 -7 2 -19 0 -25z m-30 -340 c-3 -8 -6 -5 -6 6 -1 11 2 17 5 13 3
-3 4 -12 1 -19z m-449 -95 c-120 -2 -316 -2 -435 0 -120 1 -22 2 217 2 239 0
337 -1 218 -2z m217 -80 c-8 -99 -25 -363 -25 -400 l0 -33 -671 0 -672 0 6
-77 c4 -43 9 -134 12 -203 3 -69 8 -144 11 -168 l5 -42 643 2 c567 3 642 1
640 -12 -13 -68 -28 -272 -49 -655 -13 -247 -29 -497 -35 -555 -6 -58 -14
-147 -18 -198 l-7 -93 -60 -25 c-33 -14 -107 -43 -165 -64 -58 -21 -130 -50
-161 -63 -30 -14 -93 -39 -140 -55 -46 -17 -107 -41 -135 -53 l-51 -22 -79 31
c-43 17 -155 61 -249 97 -310 120 -380 148 -391 159 -7 7 -17 135 -28 336 -9
179 -19 349 -22 378 l-6 52 180 0 180 0 6 -127 c4 -71 9 -158 12 -194 l6 -67
91 -36 c161 -63 282 -107 292 -107 22 0 367 133 384 147 3 2 12 136 22 297 10
160 21 300 24 310 7 16 -26 17 -604 17 -575 0 -611 1 -611 18 -1 31 -50 822
-64 1027 -8 110 -17 255 -21 323 l-7 122 881 0 882 0 -6 -67z m222 5 c-3 -8
-6 -5 -6 6 -1 11 2 17 5 13 3 -3 4 -12 1 -19z m-10 -215 c-3 -10 -5 -2 -5 17
0 19 2 27 5 18 2 -10 2 -26 0 -35z m-10 -185 c-2 -13 -4 -3 -4 22 0 25 2 35 4
23 2 -13 2 -33 0 -45z m-10 -170 c-2 -13 -4 -5 -4 17 -1 22 1 32 4 23 2 -10 2
-28 0 -40z m-454 -345 c-111 -2 -295 -2 -410 0 -114 1 -23 2 202 2 226 0 319
-1 208 -2z m414 -200 c-3 -10 -5 -4 -5 12 0 17 2 24 5 18 2 -7 2 -21 0 -30z
m-10 -190 c-2 -16 -4 -5 -4 22 0 28 2 40 4 28 2 -13 2 -35 0 -50z m-10 -195
c-2 -13 -4 -3 -4 22 0 25 2 35 4 23 2 -13 2 -33 0 -45z m-10 -160 c-2 -13 -4
-5 -4 17 -1 22 1 32 4 23 2 -10 2 -28 0 -40z m-767 -438 c0 -5 -5 -10 -11 -10
-5 0 -7 5 -4 10 3 6 8 10 11 10 2 0 4 -4 4 -10z m-33 -16 c-3 -3 -12 -4 -19
-1 -8 3 -5 6 6 6 11 1 17 -2 13 -5z m-87 -29 c-14 -8 -32 -14 -40 -14 -8 0 -1
6 15 14 40 18 57 18 25 0z m847 -82 c-3 -10 -5 -2 -5 17 0 19 2 27 5 18 2 -10
2 -26 0 -35z m-10 -185 c-2 -13 -4 -5 -4 17 -1 22 1 32 4 23 2 -10 2 -28 0
-40z m-237 -52 c0 -3 -4 -8 -10 -11 -5 -3 -10 -1 -10 4 0 6 5 11 10 11 6 0 10
-2 10 -4z m-135 -56 c-3 -5 -12 -10 -18 -10 -7 0 -6 4 3 10 19 12 23 12 15 0z
m362 -62 c-2 -13 -4 -3 -4 22 0 25 2 35 4 23 2 -13 2 -33 0 -45z m-407 42 c-8
-5 -19 -10 -25 -10 -5 0 -3 5 5 10 8 5 20 10 25 10 6 0 3 -5 -5 -10z m-73 -26
c-3 -3 -12 -4 -19 -1 -8 3 -5 6 6 6 11 1 17 -2 13 -5z m-148 -58 c-8 -8 -113
-45 -117 -42 -2 2 21 13 50 25 51 19 76 26 67 17z m-169 -60 c0 -3 -4 -8 -10
-11 -5 -3 -10 -1 -10 4 0 6 5 11 10 11 6 0 10 -2 10 -4z m-40 -26 c-8 -5 -19
-10 -25 -10 -5 0 -3 5 5 10 8 5 20 10 25 10 6 0 3 -5 -5 -10z m827 -52 c-2
-13 -4 -3 -4 22 0 25 2 35 4 23 2 -13 2 -33 0 -45z m-62 -123 c-16 -8 -37 -14
-45 -14 -8 0 1 7 20 14 46 18 64 17 25 0z m-115 -39 c-14 -7 -36 -16 -50 -20
-14 -3 -7 3 15 13 45 22 73 27 35 7z m-144 -61 c-11 -8 -27 -15 -35 -15 -9 1
-2 7 14 15 39 18 44 18 21 0z m-126 -44 c-8 -5 -26 -11 -40 -15 -21 -5 -20 -3
5 9 32 15 60 20 35 6z m-160 -65 c0 -6 -93 -37 -97 -32 -2 2 15 11 39 19 47
17 58 19 58 13z m-139 -51 c-18 -8 -36 -15 -40 -15 -13 1 45 29 59 29 8 0 0
-6 -19 -14z m-141 -60 c-14 -8 -29 -14 -35 -14 -5 0 1 6 15 14 14 8 30 14 35
14 6 0 -1 -6 -15 -14z"/>
</g>
</svg>
