<?xml version="1.0" standalone="no"?>
<!DOCTYPE svg PUBLIC "-//W3C//DTD SVG 20010904//EN"
 "http://www.w3.org/TR/2001/REC-SVG-20010904/DTD/svg10.dtd">
<svg version="1.0" xmlns="http://www.w3.org/2000/svg"
 width="1000.000000pt" height="1000.000000pt" viewBox="0 0 1000.000000 1000.000000"
 preserveAspectRatio="xMidYMid meet">

<g transform="translate(0.000000,1000.000000) scale(0.100000,-0.100000)"
fill="#000000" stroke="none">
<path d="M2390 9973 c-24 -3 -49 -8 -55 -12 -5 -5 -32 -12 -59 -16 -27 -3 -56
-10 -65 -15 -9 -5 -41 -16 -71 -25 -30 -9 -83 -30 -118 -46 -35 -16 -66 -29
-69 -29 -9 0 -177 -103 -191 -117 -7 -7 -16 -13 -20 -13 -12 0 -240 -200 -241
-212 -1 -4 -23 -31 -51 -60 -28 -29 -50 -56 -50 -60 0 -4 -6 -13 -12 -20 -51
-54 -180 -280 -193 -336 -3 -18 -10 -32 -15 -32 -5 0 -12 -15 -15 -32 -4 -18
-11 -37 -15 -43 -4 -5 -11 -26 -15 -45 -4 -19 -11 -40 -16 -46 -5 -6 -13 -46
-19 -90 -6 -43 -16 -90 -23 -104 -7 -17 -13 -160 -17 -435 l-5 -410 -331 -5
c-225 -3 -335 -9 -345 -16 -8 -7 -29 -15 -47 -19 -17 -3 -32 -11 -32 -16 0 -5
-6 -9 -14 -9 -30 0 -186 -139 -186 -166 0 -6 -6 -17 -14 -23 -8 -7 -18 -26
-21 -42 -4 -16 -10 -29 -14 -29 -4 0 -16 -28 -27 -62 -24 -78 -27 -273 -5
-328 46 -117 87 -182 152 -243 90 -84 129 -108 194 -123 17 -4 36 -12 44 -18
9 -7 120 -12 332 -15 l319 -3 0 -549 0 -549 -272 0 c-308 0 -381 -9 -488 -63
-61 -30 -75 -40 -141 -99 -48 -42 -91 -116 -140 -238 -19 -48 -19 -272 0 -320
49 -122 92 -196 140 -238 66 -59 80 -69 141 -99 115 -57 160 -63 476 -63 l284
0 0 -549 c0 -491 -2 -549 -16 -555 -9 -3 -155 -6 -324 -6 -170 0 -311 -4 -314
-9 -3 -5 -22 -12 -42 -15 -20 -4 -59 -21 -87 -38 -57 -34 -177 -146 -177 -164
0 -7 -6 -19 -13 -26 -12 -13 -43 -76 -68 -138 -19 -47 -20 -293 -2 -312 7 -6
13 -19 13 -27 0 -9 14 -41 30 -71 16 -30 34 -65 39 -77 19 -42 158 -163 187
-163 8 0 14 -4 14 -10 0 -5 6 -10 13 -10 6 0 26 -8 42 -17 26 -15 72 -18 365
-23 l335 -5 5 -410 c3 -277 9 -416 16 -430 7 -11 15 -49 19 -85 7 -62 35 -165
56 -202 5 -10 9 -23 9 -29 0 -7 9 -33 21 -58 12 -25 28 -62 37 -81 34 -75 136
-242 170 -278 6 -7 12 -17 12 -22 0 -4 22 -31 50 -60 27 -29 50 -54 50 -56 0
-5 134 -134 140 -134 3 0 25 -18 50 -40 25 -22 48 -40 51 -40 3 0 17 -9 30
-20 42 -35 57 -44 169 -101 100 -51 221 -99 250 -99 11 0 20 -4 20 -8 0 -5 28
-14 63 -20 34 -7 87 -18 117 -25 79 -17 6177 -18 6265 0 33 7 87 17 120 24 33
6 65 15 70 19 6 4 26 11 45 15 19 4 41 11 50 16 8 4 33 16 55 25 89 38 190 88
203 100 7 8 19 14 27 14 7 0 15 3 17 8 3 8 64 52 73 52 3 0 13 8 24 18 10 9
38 33 62 52 57 46 177 167 214 216 16 21 40 51 54 66 13 15 29 36 35 47 6 11
32 55 58 99 27 43 48 84 48 90 0 7 4 12 9 12 5 0 12 12 16 27 3 15 10 30 14
33 9 5 67 174 95 270 19 70 35 155 46 250 11 98 11 6942 0 7040 -15 127 -45
270 -70 325 -5 11 -14 39 -20 63 -6 23 -24 71 -40 106 -17 36 -30 69 -30 74 0
6 -3 12 -7 14 -5 2 -19 25 -32 51 -25 49 -127 208 -140 217 -4 3 -20 23 -37
44 -30 41 -148 162 -200 206 -44 38 -134 103 -179 130 -22 13 -42 26 -45 29
-7 8 -123 64 -185 91 -27 11 -57 25 -66 30 -9 5 -34 12 -55 16 -22 3 -44 11
-50 15 -6 5 -33 12 -60 15 -27 4 -55 12 -63 18 -10 8 -864 11 -3145 12 -1722
0 -3151 -1 -3176 -3z m240 -1643 l0 -560 -262 2 -263 3 0 320 c0 357 2 373 73
505 43 79 146 194 187 206 11 4 23 11 26 15 7 13 113 49 141 49 13 0 30 5 38
10 8 5 25 10 38 10 l22 0 0 -560z m5908 541 c50 -11 142 -55 179 -84 38 -30
107 -104 131 -141 15 -23 30 -43 33 -46 3 -3 12 -23 18 -45 7 -22 18 -51 24
-64 17 -35 17 -6947 0 -6982 -6 -13 -17 -42 -24 -64 -6 -22 -15 -42 -18 -45
-3 -3 -20 -25 -36 -49 -28 -41 -91 -109 -128 -138 -37 -29 -129 -73 -179 -84
-42 -10 -611 -14 -2715 -16 l-2663 -3 0 3890 0 3890 2663 -3 c2104 -2 2673 -6
2715 -16z m-5908 -2761 l0 -550 -265 0 -265 0 0 550 0 550 265 0 265 0 0 -550z
m-2 -2222 l-3 -553 -260 0 -260 0 -3 553 -2 552 265 0 265 0 -2 -552z m2
-2219 l0 -561 -22 6 c-13 4 -49 11 -81 17 -53 9 -71 15 -117 40 -8 5 -28 15
-45 23 -16 7 -39 23 -50 34 -83 86 -106 115 -137 172 -70 132 -72 142 -76 488
-2 172 -1 320 2 328 4 12 48 14 266 14 l260 0 0 -561z"/>
<path d="M5630 6930 c-77 -14 -144 -31 -165 -40 -11 -5 -42 -18 -70 -30 -62
-26 -118 -53 -125 -60 -3 -3 -32 -23 -64 -45 -33 -22 -86 -65 -119 -95 -61
-57 -157 -173 -157 -189 0 -5 -4 -11 -9 -13 -17 -6 -108 -193 -121 -248 -7
-30 -16 -59 -20 -65 -4 -5 -11 -35 -15 -65 -4 -30 -12 -60 -17 -67 -13 -16
-13 -322 0 -364 6 -19 15 -54 21 -79 16 -77 40 -157 56 -186 8 -16 15 -34 15
-41 0 -6 3 -13 8 -15 4 -1 20 -28 36 -58 46 -88 158 -229 235 -295 13 -11 32
-28 42 -37 10 -10 23 -18 29 -18 5 0 13 -6 17 -12 4 -7 29 -24 56 -38 26 -13
47 -28 47 -32 0 -5 6 -8 13 -8 6 0 24 -7 39 -14 16 -8 58 -24 95 -36 38 -12
78 -26 91 -31 49 -19 241 -30 353 -19 61 6 119 14 128 19 9 5 35 12 59 16 23
4 42 11 42 16 0 5 8 9 18 9 47 0 234 114 322 197 58 54 170 184 170 198 0 3 5
11 10 18 41 48 50 62 55 88 4 16 10 29 15 29 5 0 11 14 15 30 4 17 10 30 15
30 5 0 12 15 15 33 4 17 11 34 15 37 8 6 37 137 52 235 11 79 4 340 -10 358
-5 7 -12 35 -16 62 -13 97 -100 294 -176 398 -52 70 -156 176 -230 232 -69 53
-241 145 -271 145 -10 0 -20 4 -24 9 -3 6 -27 13 -53 17 -26 3 -52 11 -59 16
-16 13 -305 19 -363 8z"/>
<path d="M5580 4241 c-14 -4 -65 -11 -115 -15 -49 -4 -94 -11 -100 -15 -5 -5
-35 -11 -65 -15 -30 -4 -59 -11 -65 -15 -5 -5 -27 -11 -47 -15 -20 -4 -50 -13
-65 -21 -15 -8 -34 -15 -41 -15 -7 0 -20 -4 -30 -9 -9 -4 -53 -26 -97 -47 -44
-21 -81 -42 -83 -46 -2 -5 -9 -8 -16 -8 -29 0 -256 -195 -256 -220 0 -4 -9
-17 -20 -30 -11 -13 -20 -29 -20 -36 0 -7 -3 -14 -7 -16 -24 -10 -58 -112 -80
-240 -9 -47 34 -124 93 -168 29 -22 58 -40 64 -40 5 0 10 -4 10 -10 0 -5 5
-10 11 -10 6 0 25 -6 42 -14 84 -38 131 -56 143 -56 8 0 22 -4 32 -10 31 -17
225 -57 372 -76 339 -44 750 -44 1075 0 156 21 346 59 377 76 9 5 35 13 58 16
22 4 40 10 40 15 0 5 7 9 16 9 25 0 163 68 210 104 23 17 52 46 64 64 21 29
22 40 18 129 -3 59 -10 99 -17 101 -6 2 -11 11 -11 19 0 17 -38 91 -57 111 -7
7 -13 19 -13 27 0 33 -249 255 -287 255 -7 0 -13 4 -13 8 0 5 -25 19 -55 33
-30 13 -55 27 -55 31 0 3 -14 9 -31 13 -17 4 -42 13 -57 21 -15 8 -35 14 -44
14 -9 0 -19 4 -23 9 -3 6 -26 13 -50 17 -25 3 -48 10 -50 14 -3 5 -31 12 -63
16 -31 3 -61 10 -67 14 -32 24 -562 51 -625 31z"/>
</g>
</svg>
