<?xml version="1.0" standalone="no"?>
<!DOCTYPE svg PUBLIC "-//W3C//DTD SVG 20010904//EN"
 "http://www.w3.org/TR/2001/REC-SVG-20010904/DTD/svg10.dtd">
<svg version="1.0" xmlns="http://www.w3.org/2000/svg"
 width="1000.000000pt" height="1000.000000pt" viewBox="0 0 1000.000000 1000.000000"
 preserveAspectRatio="xMidYMid meet">

<g transform="translate(0.000000,1000.000000) scale(0.100000,-0.100000)"
fill="#000000" stroke="none">
<path d="M8414 9942 c-27 -31 -68 -80 -92 -110 -23 -31 -48 -60 -55 -66 -7 -6
-25 -29 -40 -52 -15 -22 -44 -58 -64 -80 -37 -39 -106 -122 -216 -257 -32 -40
-63 -74 -68 -75 -5 -2 -24 -27 -43 -55 -18 -29 -46 -66 -62 -82 -16 -17 -49
-55 -73 -85 -24 -30 -51 -62 -60 -70 -9 -8 -42 -46 -72 -85 -31 -38 -75 -90
-98 -115 -22 -25 -41 -50 -41 -55 0 -6 -17 -29 -38 -50 -21 -22 -63 -71 -95
-110 -31 -38 -84 -101 -117 -140 -104 -120 -167 -199 -173 -217 -4 -10 -11
-18 -16 -18 -5 0 -35 -34 -66 -75 -31 -40 -60 -75 -65 -77 -4 -2 -35 -37 -68
-78 -56 -68 -118 -144 -175 -211 -12 -14 -48 -60 -81 -102 -32 -43 -61 -77
-65 -77 -4 0 -22 -19 -39 -43 -17 -24 -45 -59 -63 -78 -18 -19 -57 -65 -88
-104 -30 -38 -66 -78 -78 -88 -13 -10 -23 -23 -23 -29 0 -12 -62 -93 -90 -118
-9 -8 -42 -46 -74 -85 -82 -102 -143 -174 -186 -221 -21 -23 -54 -67 -75 -98
-20 -31 -40 -56 -44 -56 -5 0 -30 -28 -56 -62 -27 -35 -60 -75 -74 -89 -31
-31 -128 -148 -193 -232 -26 -34 -56 -71 -66 -82 -11 -11 -39 -45 -62 -75 -23
-30 -51 -63 -62 -72 -11 -10 -39 -43 -64 -74 -27 -36 -64 -69 -97 -87 -239
-132 -251 -139 -272 -157 -26 -23 -159 -94 -221 -119 -27 -10 -85 -34 -129
-53 -44 -20 -145 -63 -225 -97 -80 -34 -174 -74 -210 -90 -120 -53 -225 -98
-258 -111 -19 -7 -39 -18 -45 -24 -7 -6 -84 -42 -172 -80 -88 -38 -196 -84
-240 -103 -44 -19 -109 -47 -145 -62 -265 -113 -363 -155 -420 -180 -36 -16
-89 -39 -117 -52 -29 -12 -53 -26 -53 -31 0 -4 -6 -8 -12 -8 -7 0 -47 -16 -88
-35 l-75 -35 -32 38 c-169 196 -445 344 -746 398 -124 22 -352 22 -474 0 -292
-53 -590 -212 -728 -388 -26 -32 -50 -58 -54 -58 -4 0 -24 -24 -43 -52 -124
-184 -146 -230 -183 -373 -14 -55 -31 -109 -37 -120 -16 -27 -23 -315 -10
-380 28 -140 121 -405 141 -405 4 0 25 -32 47 -72 21 -39 68 -102 103 -140 64
-68 222 -208 235 -208 4 0 26 -13 49 -29 41 -28 158 -85 227 -112 19 -7 37
-16 40 -20 9 -13 150 -49 250 -64 217 -34 540 -2 670 65 19 10 80 39 135 65
55 26 114 57 132 71 17 13 35 24 40 24 4 0 35 23 68 50 33 28 62 50 66 50 17
0 179 196 208 254 19 36 38 66 41 66 13 0 70 140 96 234 14 50 30 100 35 111
26 55 26 416 0 449 -5 6 -16 45 -26 86 -9 41 -27 102 -41 136 -13 33 -24 65
-24 71 0 9 84 48 220 103 25 10 129 54 233 99 116 50 222 89 277 101 50 11 98
25 108 30 9 5 121 32 247 60 127 28 300 67 385 86 85 19 245 55 355 80 110 25
228 51 262 59 34 8 65 15 69 15 8 0 -5 -72 -16 -85 -4 -5 -34 -118 -65 -250
-31 -132 -60 -244 -65 -250 -7 -9 -23 -73 -96 -385 -15 -63 -30 -117 -34 -120
-6 -4 -32 -105 -72 -285 -6 -27 -21 -70 -34 -95 -13 -25 -50 -99 -83 -165 -33
-66 -65 -127 -70 -135 -5 -8 -33 -66 -61 -128 -62 -139 -69 -148 -107 -129
-32 17 -180 60 -268 79 -95 20 -411 17 -514 -5 -207 -45 -420 -137 -538 -233
-23 -19 -46 -34 -51 -34 -15 0 -167 -169 -235 -261 -35 -48 -76 -115 -91 -150
-15 -35 -37 -83 -48 -107 -59 -125 -88 -342 -70 -524 12 -120 38 -243 60 -283
6 -11 36 -74 67 -140 31 -66 59 -122 64 -125 4 -3 22 -27 41 -54 44 -65 161
-180 252 -249 100 -75 321 -188 428 -218 55 -15 66 -24 53 -41 -6 -7 -37 -130
-69 -273 -32 -143 -61 -262 -64 -265 -4 -3 -14 -36 -22 -73 -15 -68 -15 -68 6
-64 11 3 98 17 193 33 95 15 177 30 183 34 15 9 26 77 60 348 16 129 30 236
32 238 3 2 60 8 128 14 119 11 348 61 360 80 3 4 30 18 60 30 75 29 165 77
223 117 26 18 50 33 53 33 13 0 152 125 192 173 24 29 54 64 67 78 24 26 57
83 131 229 101 200 130 488 74 745 -22 99 -56 205 -70 215 -4 3 -28 46 -54 96
-25 50 -55 100 -67 113 -11 12 -42 48 -68 79 -26 31 -78 87 -116 124 l-68 68
53 115 c30 64 57 118 61 121 9 5 33 56 85 178 19 44 38 82 43 85 5 3 35 62 67
131 31 69 61 127 65 130 5 3 20 32 34 65 42 95 217 448 230 465 6 8 33 65 59
125 27 61 51 112 55 115 7 5 137 266 220 440 22 47 45 92 50 100 5 8 30 52 55
96 26 45 56 92 67 105 11 13 43 64 71 114 28 49 56 94 63 100 7 5 22 26 34 46
19 34 80 89 96 89 4 0 29 18 55 40 26 22 51 40 55 40 4 0 35 23 70 50 35 28
66 50 69 50 7 0 85 59 155 118 43 37 112 87 243 177 37 26 72 53 79 61 6 8 16
14 21 14 5 0 35 20 66 44 70 55 142 107 204 146 25 17 48 36 51 43 3 7 36 34
73 60 38 26 96 68 129 92 33 24 89 65 125 90 36 25 99 70 140 101 41 30 92 65
112 79 20 13 59 44 87 67 27 24 81 66 120 93 39 28 96 69 125 93 30 23 57 42
61 42 5 0 44 28 165 118 14 10 50 36 80 57 30 21 87 63 125 95 68 55 230 175
264 195 17 10 100 71 201 148 27 20 52 37 56 37 3 0 34 23 69 50 35 28 66 50
70 50 5 0 23 16 42 35 19 19 57 51 86 70 29 19 86 59 127 89 41 31 105 76 142
101 37 26 72 53 79 61 6 8 15 14 20 14 5 0 41 25 80 55 39 30 74 55 78 55 4 0
28 19 54 43 25 23 78 65 117 92 39 28 103 74 143 102 90 66 166 120 191 137
18 12 18 14 -9 59 -15 26 -29 47 -31 47 -2 0 -46 -23 -96 -52 -51 -28 -106
-58 -123 -66 -16 -8 -41 -23 -55 -32 -22 -16 -66 -40 -210 -118 -25 -13 -49
-27 -55 -32 -9 -7 -106 -61 -184 -102 -19 -10 -37 -21 -40 -26 -8 -10 -46 -34
-113 -71 -29 -16 -87 -48 -128 -71 -41 -24 -93 -53 -115 -65 -68 -37 -218
-121 -260 -145 -22 -12 -80 -45 -129 -72 -48 -27 -98 -54 -109 -61 -12 -7 -26
-17 -32 -24 -9 -10 -110 -68 -245 -141 -25 -13 -49 -27 -55 -32 -5 -4 -35 -21
-65 -37 -138 -74 -196 -106 -205 -113 -5 -4 -35 -21 -65 -38 -148 -81 -207
-115 -225 -130 -11 -9 -30 -22 -41 -29 -12 -7 -62 -34 -110 -61 -49 -27 -107
-60 -129 -72 -125 -71 -206 -116 -250 -140 -27 -15 -88 -49 -135 -75 -47 -27
-106 -60 -133 -74 -26 -13 -56 -33 -68 -44 -11 -10 -22 -17 -25 -14 -5 5 69
130 97 162 9 11 40 58 69 105 29 47 56 87 60 90 9 6 76 118 104 173 11 20 22
37 26 37 4 0 33 42 64 93 32 50 76 120 99 154 51 74 91 138 134 210 18 30 46
73 62 96 16 23 53 80 82 127 28 47 57 90 64 95 16 13 105 159 105 172 0 5 9
19 19 30 11 12 45 61 76 109 31 49 71 110 88 136 52 77 109 166 160 252 27 45
56 90 67 101 10 11 39 56 65 100 27 44 53 85 59 90 16 14 106 161 106 172 0 5
9 18 19 30 11 11 45 62 77 114 32 52 63 99 69 104 7 6 29 39 50 75 21 36 55
88 77 116 21 28 38 54 38 59 0 10 70 128 84 140 14 13 49 66 44 69 -2 1 -26
11 -54 22 l-51 21 -49 -55z m-2977 -4044 c37 -10 61 -26 105 -71 51 -52 57
-63 63 -112 10 -75 0 -115 -40 -168 -42 -55 -84 -81 -150 -95 -112 -23 -230
30 -276 125 -18 36 -21 57 -17 111 6 84 25 121 85 165 75 55 141 68 230 45z
m-3878 -1098 c114 -23 290 -106 396 -185 137 -103 258 -260 313 -406 47 -127
65 -316 42 -457 -13 -76 -52 -204 -69 -223 -7 -8 -29 -44 -49 -81 -34 -60
-106 -151 -173 -217 -100 -99 -302 -197 -474 -232 -101 -20 -320 -17 -420 6
-191 43 -371 137 -469 244 -23 24 -59 63 -82 87 -22 24 -58 77 -80 119 -21 41
-42 75 -46 75 -11 0 -57 156 -68 229 -22 148 -7 303 41 441 51 148 187 327
319 421 95 67 287 157 380 178 118 27 313 27 439 1z m2175 -2014 c55 -14 102
-30 105 -35 3 -5 26 -17 51 -27 119 -48 298 -182 362 -271 17 -23 35 -43 38
-43 12 0 76 -129 101 -200 12 -36 25 -69 29 -75 44 -57 43 -436 0 -490 -5 -5
-17 -35 -28 -65 -31 -91 -64 -146 -142 -244 -138 -171 -292 -269 -515 -328
-120 -31 -339 -36 -465 -10 -110 23 -232 68 -309 114 -29 18 -64 39 -77 46
-38 21 -167 156 -210 219 -21 32 -44 63 -51 68 -17 14 -68 138 -87 210 -30
120 -39 230 -26 334 12 100 67 287 97 332 106 160 171 229 288 308 72 49 230
128 298 151 144 46 375 49 541 6z"/>
<path d="M1898 9096 c-45 -18 -93 -57 -227 -180 -93 -87 -171 -161 -173 -165
-2 -4 -121 -116 -265 -249 -143 -133 -263 -245 -265 -249 -1 -5 -118 -115
-259 -244 -141 -130 -287 -268 -325 -305 -38 -38 -128 -125 -201 -194 -144
-135 -173 -179 -173 -265 0 -92 50 -135 155 -135 69 0 179 54 232 114 21 23
153 149 295 279 141 130 258 240 260 245 1 4 120 116 264 249 144 132 283 264
309 292 82 87 189 119 297 87 31 -9 66 -25 79 -36 l24 -19 -40 -41 c-22 -22
-157 -149 -300 -282 -143 -133 -261 -245 -263 -249 -2 -4 -112 -108 -245 -230
-133 -123 -267 -249 -297 -280 -30 -31 -120 -116 -200 -189 -169 -155 -170
-156 -170 -190 0 -55 60 -92 124 -76 24 6 385 330 501 450 33 34 169 162 302
284 133 122 243 226 245 231 4 10 471 441 478 441 3 0 36 -28 74 -63 l68 -62
-151 -139 c-84 -77 -160 -149 -169 -160 -9 -12 -136 -131 -282 -266 -146 -134
-266 -248 -268 -252 -2 -4 -117 -112 -255 -240 -337 -312 -397 -374 -397 -410
0 -32 28 -65 65 -74 58 -15 86 2 220 132 72 70 241 230 377 355 135 126 248
232 250 237 2 4 120 116 263 249 143 133 307 287 365 342 58 56 108 101 111
101 3 0 36 -27 73 -61 l66 -61 -42 -47 c-24 -27 -156 -152 -295 -280 -138
-127 -253 -235 -255 -239 -2 -4 -97 -95 -213 -202 -494 -456 -715 -672 -715
-698 0 -11 13 -34 29 -51 23 -25 37 -31 70 -31 40 0 50 8 299 237 141 131 259
241 260 245 2 5 121 117 265 250 144 133 265 247 269 253 9 14 447 419 458
423 5 2 39 -25 75 -60 l67 -63 -123 -114 c-68 -63 -153 -144 -189 -181 -36
-36 -172 -164 -302 -284 -130 -119 -238 -221 -240 -225 -2 -4 -100 -97 -218
-206 -275 -253 -407 -383 -426 -418 -32 -59 11 -122 82 -120 29 1 53 18 162
119 70 65 128 122 130 126 2 4 117 112 255 240 139 127 275 256 302 284 28 29
142 137 255 241 113 104 257 239 320 301 63 62 119 112 124 112 5 0 39 -28 75
-62 l66 -63 -55 -57 c-30 -31 -149 -143 -265 -249 -115 -105 -239 -222 -275
-258 -36 -37 -165 -158 -287 -270 -123 -112 -223 -207 -223 -210 0 -4 -87 -87
-194 -185 -107 -98 -200 -191 -206 -207 -26 -61 41 -134 103 -113 25 9 421
367 547 495 36 37 160 153 275 259 116 106 233 216 260 245 81 86 445 417 454
413 5 -2 38 -30 73 -63 l64 -61 -104 -94 c-57 -52 -143 -134 -190 -181 -48
-47 -188 -179 -312 -294 -124 -114 -228 -212 -232 -219 -4 -6 -124 -119 -267
-251 -144 -132 -261 -243 -261 -247 0 -8 -38 -45 -86 -83 -18 -14 -39 -41 -49
-61 -21 -45 -7 -87 37 -110 54 -28 79 -14 233 131 89 84 111 105 151 145 69
67 162 155 229 215 100 90 192 177 295 280 31 31 136 129 218 203 99 91 187
173 239 225 26 27 56 56 66 65 10 9 50 48 88 85 39 37 75 67 79 65 4 -2 37
-31 74 -65 l67 -62 -68 -69 c-37 -38 -162 -157 -278 -263 -115 -106 -230 -214
-255 -240 -25 -27 -146 -141 -270 -255 -124 -113 -228 -211 -232 -218 -4 -7
-97 -95 -207 -195 -109 -101 -202 -193 -205 -204 -7 -29 23 -89 55 -106 14 -8
36 -11 50 -8 23 6 469 409 559 505 25 27 156 151 292 276 135 124 248 230 250
235 2 4 101 98 222 209 l218 201 69 -61 c38 -34 69 -65 69 -68 0 -3 -57 -57
-126 -120 -70 -63 -136 -126 -148 -140 -11 -14 -140 -135 -286 -270 -146 -135
-266 -248 -268 -252 -2 -5 -115 -111 -250 -236 -390 -361 -432 -404 -432 -445
0 -53 27 -80 82 -81 52 -1 76 17 253 189 55 54 213 203 352 331 138 128 253
237 255 242 1 4 120 116 263 249 143 132 300 280 349 327 l88 85 69 -61 c38
-33 69 -64 69 -69 0 -12 -51 -62 -307 -298 -133 -122 -243 -226 -245 -230 -2
-4 -95 -92 -208 -196 -113 -103 -259 -241 -325 -306 -66 -65 -133 -128 -148
-140 -15 -12 -26 -23 -24 -26 3 -2 54 17 113 43 60 26 145 62 188 80 44 19 82
38 86 43 3 6 22 16 42 23 35 12 399 339 558 499 36 37 128 124 205 195 77 70
154 140 170 156 l30 27 70 -64 70 -64 -50 -47 c-27 -26 -129 -122 -225 -214
-96 -92 -193 -183 -215 -203 l-40 -37 60 24 c33 14 139 58 236 100 l177 76 92
89 93 90 35 -29 34 -28 48 29 c26 16 50 29 53 29 4 0 28 13 54 29 62 38 148
86 198 112 22 12 56 41 75 67 19 25 52 63 72 84 20 21 43 51 51 67 l15 30
-216 198 c-119 109 -248 230 -287 269 -38 39 -162 156 -275 259 -113 103 -227
211 -255 240 -27 29 -144 140 -260 245 -115 105 -230 213 -255 240 -25 26
-139 134 -255 239 -115 106 -235 218 -265 250 -30 32 -166 160 -302 285 -135
124 -248 230 -250 234 -3 8 -246 234 -321 299 -85 73 -196 91 -299 49z"/>
<path d="M5957 5428 c-171 -117 -186 -130 -206 -172 -11 -24 -27 -50 -35 -58
-8 -9 -40 -57 -71 -107 -30 -51 -65 -102 -76 -114 -11 -12 -41 -65 -67 -117
-25 -52 -48 -97 -51 -100 -4 -3 -31 -59 -60 -125 -30 -66 -60 -127 -67 -135
-7 -9 -34 -60 -59 -115 -25 -55 -66 -139 -90 -187 -25 -48 -45 -89 -45 -92 0
-3 42 10 93 28 249 91 452 114 572 68 192 -75 474 -268 600 -412 16 -19 55
-62 85 -96 109 -120 162 -183 203 -241 22 -32 46 -62 53 -68 17 -15 94 -132
94 -144 0 -5 11 -22 25 -37 13 -14 46 -63 71 -108 26 -44 52 -85 59 -91 6 -5
38 -57 70 -115 32 -58 62 -109 67 -115 4 -5 31 -55 59 -110 28 -55 56 -106 63
-113 12 -15 95 -176 180 -352 31 -63 60 -122 66 -130 14 -21 128 -242 200
-390 33 -68 64 -127 69 -130 4 -3 29 -44 54 -91 26 -47 55 -95 65 -106 9 -12
35 -53 57 -93 22 -39 48 -82 60 -94 11 -12 42 -48 68 -79 68 -79 159 -142 253
-173 186 -61 480 -37 774 63 202 69 463 197 544 266 55 47 171 137 177 137 13
0 151 171 165 205 19 45 17 103 -4 141 -9 17 -135 139 -279 272 -144 133 -263
245 -265 250 -1 4 -122 117 -268 252 -146 134 -266 247 -268 252 -2 4 -115
110 -250 234 -136 125 -272 253 -302 285 -30 32 -149 144 -265 250 -115 105
-230 213 -255 239 -25 27 -139 135 -255 240 -115 105 -232 216 -260 245 -27
29 -142 137 -255 240 -113 102 -227 210 -255 239 -27 29 -142 137 -255 241
-113 103 -257 239 -320 300 -119 116 -204 195 -211 195 -2 0 -26 -15 -52 -32z"/>
<path d="M4300 4786 c-128 -31 -147 -36 -195 -56 -23 -9 -421 -375 -584 -537
-101 -100 -111 -113 -111 -147 0 -55 38 -90 91 -83 34 4 59 23 162 118 67 61
147 138 177 170 30 31 147 142 260 244 154 141 357 336 336 324 0 0 -62 -15
-136 -33z"/>
<path d="M3554 4610 c-89 -21 -167 -39 -172 -41 -6 -2 -65 -55 -131 -117 -109
-102 -121 -117 -121 -148 0 -19 4 -34 9 -34 5 0 11 -9 14 -20 12 -48 112 -49
146 -2 11 15 110 111 220 212 174 159 211 194 199 189 -2 -1 -76 -18 -164 -39z"/>
<path d="M4259 4267 c-35 -36 -136 -131 -224 -211 -188 -173 -217 -209 -246
-299 l-22 -68 24 -46 c32 -61 73 -83 160 -83 36 0 88 7 116 15 50 15 52 17 75
75 12 33 26 60 30 60 5 0 8 7 8 16 0 24 100 435 111 453 10 18 39 144 34 149
-1 2 -31 -26 -66 -61z"/>
</g>
</svg>
